<svg width="24" height="25" viewBox="0 0 24 25" fill="none" xmlns="http://www.w3.org/2000/svg">
<path opacity="0.4" d="M12 22.5C17.5228 22.5 22 18.0228 22 12.5C22 6.97715 17.5228 2.5 12 2.5C6.47715 2.5 2 6.97715 2 12.5C2 18.0228 6.47715 22.5 12 22.5Z" fill="#32BB78"/>
<path d="M16 11.75H12.75V8.5C12.75 8.09 12.41 7.75 12 7.75C11.59 7.75 11.25 8.09 11.25 8.5V11.75H8C7.59 11.75 7.25 12.09 7.25 12.5C7.25 12.91 7.59 13.25 8 13.25H11.25V16.5C11.25 16.91 11.59 17.25 12 17.25C12.41 17.25 12.75 16.91 12.75 16.5V13.25H16C16.41 13.25 16.75 12.91 16.75 12.5C16.75 12.09 16.41 11.75 16 11.75Z" fill="#32BB78"/>
</svg>
