<svg width="25" height="24" viewBox="0 0 25 24" fill="none" xmlns="http://www.w3.org/2000/svg">
<path d="M16.69 2H8.31C4.67 2 2.5 4.17 2.5 7.81V16.18C2.5 19.83 4.67 22 8.31 22H16.68C20.32 22 22.49 19.83 22.49 16.19V7.81C22.5 4.17 20.33 2 16.69 2ZM17.5 17.25H7.5C7.09 17.25 6.75 16.91 6.75 16.5C6.75 16.09 7.09 15.75 7.5 15.75H17.5C17.91 15.75 18.25 16.09 18.25 16.5C18.25 16.91 17.91 17.25 17.5 17.25ZM17.5 12.75H7.5C7.09 12.75 6.75 12.41 6.75 12C6.75 11.59 7.09 11.25 7.5 11.25H17.5C17.91 11.25 18.25 11.59 18.25 12C18.25 12.41 17.91 12.75 17.5 12.75ZM17.5 8.25H7.5C7.09 8.25 6.75 7.91 6.75 7.5C6.75 7.09 7.09 6.75 7.5 6.75H17.5C17.91 6.75 18.25 7.09 18.25 7.5C18.25 7.91 17.91 8.25 17.5 8.25Z" fill="white"/>
</svg>
