<svg width="24" height="25" viewBox="0 0 24 25" fill="none" xmlns="http://www.w3.org/2000/svg">
<path d="M12 23.25C6.07 23.25 1.25 18.43 1.25 12.5C1.25 6.57 6.07 1.75 12 1.75C17.93 1.75 22.75 6.57 22.75 12.5C22.75 18.43 17.93 23.25 12 23.25ZM12 3.25C6.9 3.25 2.75 7.4 2.75 12.5C2.75 17.6 6.9 21.75 12 21.75C17.1 21.75 21.25 17.6 21.25 12.5C21.25 7.4 17.1 3.25 12 3.25Z" fill="#585A68"/>
<path d="M9.00023 22.25H8.00023C7.59023 22.25 7.25023 21.91 7.25023 21.5C7.25023 21.09 7.57023 20.76 7.98023 20.75C6.41023 15.39 6.41023 9.61 7.98023 4.25C7.57023 4.24 7.25023 3.91 7.25023 3.5C7.25023 3.09 7.59023 2.75 8.00023 2.75H9.00023C9.24023 2.75 9.47023 2.87 9.61023 3.06C9.75023 3.26 9.79023 3.51 9.71023 3.74C7.83023 9.39 7.83023 15.61 9.71023 21.27C9.79023 21.5 9.75023 21.75 9.61023 21.95C9.47023 22.13 9.24023 22.25 9.00023 22.25Z" fill="#585A68"/>
<path d="M14.9999 22.2497C14.9199 22.2497 14.8399 22.2397 14.7599 22.2097C14.3699 22.0797 14.1499 21.6497 14.2899 21.2597C16.1699 15.6097 16.1699 9.38969 14.2899 3.72969C14.1599 3.33969 14.3699 2.90969 14.7599 2.77969C15.1599 2.64969 15.5799 2.85969 15.7099 3.24969C17.6999 9.20969 17.6999 15.7697 15.7099 21.7197C15.6099 22.0497 15.3099 22.2497 14.9999 22.2497Z" fill="#585A68"/>
<path d="M12 17.6998C9.21 17.6998 6.43 17.3098 3.75 16.5198C3.74 16.9198 3.41 17.2498 3 17.2498C2.59 17.2498 2.25 16.9098 2.25 16.4998V15.4998C2.25 15.2598 2.37 15.0298 2.56 14.8898C2.76 14.7498 3.01 14.7098 3.24 14.7898C8.89 16.6698 15.12 16.6698 20.77 14.7898C21 14.7098 21.25 14.7498 21.45 14.8898C21.65 15.0298 21.76 15.2598 21.76 15.4998V16.4998C21.76 16.9098 21.42 17.2498 21.01 17.2498C20.6 17.2498 20.27 16.9298 20.26 16.5198C17.57 17.3098 14.79 17.6998 12 17.6998Z" fill="#585A68"/>
<path d="M20.9998 10.2504C20.9198 10.2504 20.8398 10.2404 20.7598 10.2104C15.1098 8.33035 8.87978 8.33035 3.22978 10.2104C2.82978 10.3404 2.40978 10.1304 2.27978 9.74035C2.15978 9.34035 2.36978 8.92035 2.75978 8.79035C8.71978 6.80035 15.2798 6.80035 21.2298 8.79035C21.6198 8.92035 21.8398 9.35035 21.6998 9.74035C21.6098 10.0504 21.3098 10.2504 20.9998 10.2504Z" fill="#585A68"/>
</svg>
