<svg width="42" height="42" viewBox="0 0 42 42" fill="none" xmlns="http://www.w3.org/2000/svg">
<circle cx="21" cy="21" r="21" fill="white"/>
<path d="M21 30.6496C20.69 30.6496 20.39 30.6096 20.14 30.5196C16.32 29.2096 10.25 24.5596 10.25 17.6896C10.25 14.1896 13.08 11.3496 16.56 11.3496C18.25 11.3496 19.83 12.0096 21 13.1896C22.17 12.0096 23.75 11.3496 25.44 11.3496C28.92 11.3496 31.75 14.1996 31.75 17.6896C31.75 24.5696 25.68 29.2096 21.86 30.5196C21.61 30.6096 21.31 30.6496 21 30.6496ZM16.56 12.8496C13.91 12.8496 11.75 15.0196 11.75 17.6896C11.75 24.5196 18.32 28.3196 20.63 29.1096C20.81 29.1696 21.2 29.1696 21.38 29.1096C23.68 28.3196 30.26 24.5296 30.26 17.6896C30.26 15.0196 28.1 12.8496 25.45 12.8496C23.93 12.8496 22.52 13.5596 21.61 14.7896C21.33 15.1696 20.69 15.1696 20.41 14.7896C19.48 13.5496 18.08 12.8496 16.56 12.8496Z" fill="#2F313F"/>
</svg>
