<svg width="25" height="24" viewBox="0 0 25 24" fill="none" xmlns="http://www.w3.org/2000/svg">
<path opacity="0.4" d="M12.5 22C18.0228 22 22.5 17.5228 22.5 12C22.5 6.47715 18.0228 2 12.5 2C6.97715 2 2.5 6.47715 2.5 12C2.5 17.5228 6.97715 22 12.5 22Z" fill="#32BB78"/>
<path d="M12.8301 17.0004C12.6501 17.0604 12.3401 17.0604 12.1601 17.0004C10.6001 16.4704 7.1001 14.2404 7.1001 10.4604C7.1001 8.79042 8.4401 7.44043 10.1001 7.44043C11.0801 7.44043 11.9501 7.91042 12.5001 8.65042C13.0401 7.92042 13.9201 7.44043 14.9001 7.44043C16.5601 7.44043 17.9001 8.79042 17.9001 10.4604C17.9001 14.2404 14.4001 16.4704 12.8301 17.0004Z" fill="#32BB78"/>
</svg>
