<svg width="25" height="24" viewBox="0 0 25 24" fill="none" xmlns="http://www.w3.org/2000/svg">
<path d="M12.5 21.6496C12.19 21.6496 11.89 21.6096 11.64 21.5196C7.82 20.2096 1.75 15.5596 1.75 8.68961C1.75 5.18961 4.58 2.34961 8.06 2.34961C9.75 2.34961 11.33 3.00961 12.5 4.18961C13.67 3.00961 15.25 2.34961 16.94 2.34961C20.42 2.34961 23.25 5.19961 23.25 8.68961C23.25 15.5696 17.18 20.2096 13.36 21.5196C13.11 21.6096 12.81 21.6496 12.5 21.6496ZM8.06 3.84961C5.41 3.84961 3.25 6.01961 3.25 8.68961C3.25 15.5196 9.82 19.3196 12.13 20.1096C12.31 20.1696 12.7 20.1696 12.88 20.1096C15.18 19.3196 21.76 15.5296 21.76 8.68961C21.76 6.01961 19.6 3.84961 16.95 3.84961C15.43 3.84961 14.02 4.55961 13.11 5.78961C12.83 6.16961 12.19 6.16961 11.91 5.78961C10.98 4.54961 9.58 3.84961 8.06 3.84961Z" fill="white"/>
</svg>
