<svg width="24" height="25" viewBox="0 0 24 25" fill="none" xmlns="http://www.w3.org/2000/svg">
<path d="M12.0002 23.26C10.5202 23.26 9.03018 22.7 7.87018 21.59C4.92018 18.75 1.66018 14.22 2.89018 8.83C4.00018 3.94 8.27018 1.75 12.0002 1.75C12.0002 1.75 12.0002 1.75 12.0102 1.75C15.7402 1.75 20.0102 3.94 21.1202 8.84C22.3402 14.23 19.0802 18.75 16.1302 21.59C14.9702 22.7 13.4802 23.26 12.0002 23.26ZM12.0002 3.25C9.09018 3.25 5.35018 4.8 4.36018 9.16C3.28018 13.87 6.24018 17.93 8.92018 20.5C10.6502 22.17 13.3602 22.17 15.0902 20.5C17.7602 17.93 20.7202 13.87 19.6602 9.16C18.6602 4.8 14.9102 3.25 12.0002 3.25Z" fill="#585A68"/>
<path d="M10.7499 14.2504C10.5599 14.2504 10.3699 14.1804 10.2199 14.0304L8.71994 12.5304C8.42994 12.2404 8.42994 11.7604 8.71994 11.4704C9.00994 11.1804 9.48994 11.1804 9.77994 11.4704L10.7499 12.4404L14.2199 8.97043C14.5099 8.68043 14.9899 8.68043 15.2799 8.97043C15.5699 9.26043 15.5699 9.74043 15.2799 10.0304L11.2799 14.0304C11.1299 14.1804 10.9399 14.2504 10.7499 14.2504Z" fill="#585A68"/>
</svg>
