<svg width="24" height="24" viewBox="0 0 24 24" fill="none" xmlns="http://www.w3.org/2000/svg">
<path d="M11.9999 14.1704C9.86988 14.1704 8.12988 12.4404 8.12988 10.3004C8.12988 8.16043 9.86988 6.44043 11.9999 6.44043C14.1299 6.44043 15.8699 8.17043 15.8699 10.3104C15.8699 12.4504 14.1299 14.1704 11.9999 14.1704ZM11.9999 7.94043C10.6999 7.94043 9.62988 9.00043 9.62988 10.3104C9.62988 11.6204 10.6899 12.6804 11.9999 12.6804C13.3099 12.6804 14.3699 11.6204 14.3699 10.3104C14.3699 9.00043 13.2999 7.94043 11.9999 7.94043Z" fill="#32BB78"/>
<path d="M11.9997 22.76C10.5197 22.76 9.02969 22.2 7.86969 21.09C4.91969 18.25 1.65969 13.72 2.88969 8.33C3.99969 3.44 8.26969 1.25 11.9997 1.25C11.9997 1.25 11.9997 1.25 12.0097 1.25C15.7397 1.25 20.0097 3.44 21.1197 8.34C22.3397 13.73 19.0797 18.25 16.1297 21.09C14.9697 22.2 13.4797 22.76 11.9997 22.76ZM11.9997 2.75C9.08969 2.75 5.34969 4.3 4.35969 8.66C3.27969 13.37 6.23969 17.43 8.91969 20C10.6497 21.67 13.3597 21.67 15.0897 20C17.7597 17.43 20.7197 13.37 19.6597 8.66C18.6597 4.3 14.9097 2.75 11.9997 2.75Z" fill="#32BB78"/>
</svg>
