<svg width="24" height="25" viewBox="0 0 24 25" fill="none" xmlns="http://www.w3.org/2000/svg">
<path d="M11.9998 23.2495C10.8298 23.2495 9.73977 22.7995 8.91977 21.9795L2.52975 15.5895C1.70975 14.7695 1.25977 13.6695 1.25977 12.5095C1.25977 11.3495 1.70975 10.2495 2.52975 9.4295L8.91977 3.03949C9.73977 2.21949 10.8398 1.76953 11.9998 1.76953C13.1598 1.76953 14.2597 2.21949 15.0797 3.03949L21.4698 9.4295C22.2898 10.2495 22.7397 11.3495 22.7397 12.5095C22.7397 13.6695 22.2898 14.7695 21.4698 15.5895L15.0797 21.9795C14.2597 22.7995 13.1698 23.2495 11.9998 23.2495ZM11.9998 3.24951C11.2298 3.24951 10.5098 3.54953 9.97977 4.07953L3.58975 10.4695C3.04975 11.0095 2.75977 11.7295 2.75977 12.4895C2.75977 13.2495 3.05975 13.9795 3.58975 14.5095L9.97977 20.8995C11.0498 21.9695 12.9497 21.9695 14.0197 20.8995L20.4098 14.5095C20.9498 13.9695 21.2397 13.2595 21.2397 12.4895C21.2397 11.7195 20.9398 10.9995 20.4098 10.4695L14.0197 4.07953C13.4897 3.54953 12.7698 3.24951 11.9998 3.24951Z" fill="#585A68"/>
<path d="M17.7499 18.9995C17.5599 18.9995 17.3699 18.9295 17.2199 18.7795L5.71994 7.27951C5.42994 6.98951 5.42994 6.50945 5.71994 6.21945C6.00994 5.92945 6.48994 5.92945 6.77994 6.21945L18.2799 17.7195C18.5699 18.0095 18.5699 18.4895 18.2799 18.7795C18.1299 18.9295 17.9399 18.9995 17.7499 18.9995Z" fill="#585A68"/>
<path d="M6.24994 18.9995C6.05994 18.9995 5.86994 18.9295 5.71994 18.7795C5.42994 18.4895 5.42994 18.0095 5.71994 17.7195L17.2199 6.21945C17.5099 5.92945 17.9899 5.92945 18.2799 6.21945C18.5699 6.50945 18.5699 6.98951 18.2799 7.27951L6.77994 18.7795C6.62994 18.9295 6.43994 18.9995 6.24994 18.9995Z" fill="#585A68"/>
</svg>
