<svg width="25" height="24" viewBox="0 0 25 24" fill="none" xmlns="http://www.w3.org/2000/svg">
<path d="M18.44 17.75H7.78999C6.79999 17.75 5.84999 17.33 5.17999 16.6C4.50999 15.87 4.17 14.89 4.25 13.9L5.08 3.94C5.11 3.63 4.99999 3.33001 4.78999 3.10001C4.57999 2.87001 4.29 2.75 3.98 2.75H2.25C1.84 2.75 1.5 2.41 1.5 2C1.5 1.59 1.84 1.25 2.25 1.25H3.99001C4.72001 1.25 5.40999 1.56 5.89999 2.09C6.16999 2.39 6.37 2.74 6.48 3.13H18.97C19.98 3.13 20.91 3.53 21.59 4.25C22.26 4.98 22.6 5.93 22.52 6.94L21.98 14.44C21.87 16.27 20.27 17.75 18.44 17.75ZM6.53 4.62L5.75 14.02C5.7 14.6 5.89 15.15 6.28 15.58C6.67 16.01 7.20999 16.24 7.78999 16.24H18.44C19.48 16.24 20.42 15.36 20.5 14.32L21.04 6.82001C21.08 6.23001 20.89 5.67001 20.5 5.26001C20.11 4.84001 19.57 4.60999 18.98 4.60999H6.53V4.62Z" fill="#32BB78"/>
<path d="M16.5 22.75C15.4 22.75 14.5 21.85 14.5 20.75C14.5 19.65 15.4 18.75 16.5 18.75C17.6 18.75 18.5 19.65 18.5 20.75C18.5 21.85 17.6 22.75 16.5 22.75ZM16.5 20.25C16.22 20.25 16 20.47 16 20.75C16 21.03 16.22 21.25 16.5 21.25C16.78 21.25 17 21.03 17 20.75C17 20.47 16.78 20.25 16.5 20.25Z" fill="#32BB78"/>
<path d="M8.5 22.75C7.4 22.75 6.5 21.85 6.5 20.75C6.5 19.65 7.4 18.75 8.5 18.75C9.6 18.75 10.5 19.65 10.5 20.75C10.5 21.85 9.6 22.75 8.5 22.75ZM8.5 20.25C8.22 20.25 8 20.47 8 20.75C8 21.03 8.22 21.25 8.5 21.25C8.78 21.25 9 21.03 9 20.75C9 20.47 8.78 20.25 8.5 20.25Z" fill="#32BB78"/>
<path d="M21.25 8.75H9.25C8.84 8.75 8.5 8.41 8.5 8C8.5 7.59 8.84 7.25 9.25 7.25H21.25C21.66 7.25 22 7.59 22 8C22 8.41 21.66 8.75 21.25 8.75Z" fill="#32BB78"/>
</svg>
