<svg width="33" height="33" viewBox="0 0 33 33" fill="none" xmlns="http://www.w3.org/2000/svg">
<path d="M8.15331 21.8327C8.29997 21.1793 8.03331 20.246 7.56664 19.7794L4.32664 16.5393C3.31331 15.526 2.91331 14.446 3.20664 13.5127C3.51331 12.5793 4.45998 11.9393 5.87331 11.6993L10.0333 11.006C10.6333 10.8993 11.3666 10.366 11.6466 9.81935L13.94 5.21935C14.6066 3.89935 15.5133 3.16602 16.5 3.16602C17.4866 3.16602 18.3933 3.89935 19.06 5.21935L21.3533 9.81935C21.5266 10.166 21.8866 10.4993 22.2733 10.726L7.91331 25.086C7.72664 25.2727 7.40664 25.0993 7.45997 24.8327L8.15331 21.8327Z" fill="#FFB200"/>
<path d="M25.4333 19.7805C24.9533 20.2605 24.6867 21.1805 24.8467 21.8338L25.7667 25.8472C26.1533 27.5138 25.9133 28.7672 25.0867 29.3672C24.7533 29.6072 24.3533 29.7272 23.8867 29.7272C23.2067 29.7272 22.4067 29.4738 21.5267 28.9538L17.62 26.6338C17.0067 26.2738 15.9933 26.2738 15.38 26.6338L11.4733 28.9538C9.99334 29.8205 8.72667 29.9672 7.91334 29.3672C7.60667 29.1405 7.38 28.8338 7.23334 28.4338L23.4467 12.2205C24.06 11.6072 24.9267 11.3272 25.7667 11.4738L27.1133 11.7005C28.5267 11.9405 29.4733 12.5805 29.78 13.5138C30.0733 14.4472 29.6733 15.5272 28.66 16.5405L25.4333 19.7805Z" fill="#FFB200"/>
</svg>
