<svg width="20" height="20" viewBox="0 0 20 20" fill="none" xmlns="http://www.w3.org/2000/svg">
<path opacity="0.4" d="M15.2919 16.4C14.8336 17.575 13.7169 18.3333 12.4586 18.3333H7.54189C6.27523 18.3333 5.16689 17.575 4.70856 16.4C4.25023 15.2167 4.56689 13.9083 5.50023 13.0583L8.87523 10H11.1336L14.5002 13.0583C15.4336 13.9083 15.7419 15.2167 15.2919 16.4Z" fill="#FFB200"/>
<path d="M11.517 15.1167H8.48366C8.16699 15.1167 7.91699 14.8584 7.91699 14.5501C7.91699 14.2334 8.17533 13.9834 8.48366 13.9834H11.517C11.8337 13.9834 12.0837 14.2417 12.0837 14.5501C12.0837 14.8584 11.8253 15.1167 11.517 15.1167Z" fill="#FFB200"/>
<path d="M15.2919 3.60033C14.8335 2.42533 13.7169 1.66699 12.4585 1.66699H7.54188C6.28355 1.66699 5.16688 2.42533 4.70855 3.60033C4.25855 4.78366 4.56688 6.09199 5.50855 6.94199L8.87521 10.0003H11.1335L14.5002 6.94199C15.4335 6.09199 15.7419 4.78366 15.2919 3.60033ZM11.5169 6.02533H8.48355C8.16688 6.02533 7.91688 5.76699 7.91688 5.45866C7.91688 5.15033 8.17522 4.89199 8.48355 4.89199H11.5169C11.8335 4.89199 12.0835 5.15033 12.0835 5.45866C12.0835 5.76699 11.8252 6.02533 11.5169 6.02533Z" fill="#FFB200"/>
</svg>
