<svg width="20" height="20" viewBox="0 0 20 20" fill="none" xmlns="http://www.w3.org/2000/svg">
<path opacity="0.4" d="M10.0003 18.3337C14.6027 18.3337 18.3337 14.6027 18.3337 10.0003C18.3337 5.39795 14.6027 1.66699 10.0003 1.66699C5.39795 1.66699 1.66699 5.39795 1.66699 10.0003C1.66699 14.6027 5.39795 18.3337 10.0003 18.3337Z" fill="#EB4755"/>
<path d="M10.8831 9.9998L12.7998 8.08314C13.0415 7.84147 13.0415 7.44147 12.7998 7.1998C12.5581 6.95814 12.1581 6.95814 11.9165 7.1998L9.9998 9.11647L8.08314 7.1998C7.84147 6.95814 7.44147 6.95814 7.1998 7.1998C6.95814 7.44147 6.95814 7.84147 7.1998 8.08314L9.11647 9.9998L7.1998 11.9165C6.95814 12.1581 6.95814 12.5581 7.1998 12.7998C7.3248 12.9248 7.48314 12.9831 7.64147 12.9831C7.7998 12.9831 7.95814 12.9248 8.08314 12.7998L9.9998 10.8831L11.9165 12.7998C12.0415 12.9248 12.1998 12.9831 12.3581 12.9831C12.5165 12.9831 12.6748 12.9248 12.7998 12.7998C13.0415 12.5581 13.0415 12.1581 12.7998 11.9165L10.8831 9.9998Z" fill="#EB4755"/>
</svg>
