<svg width="20" height="20" viewBox="0 0 20 20" fill="none" xmlns="http://www.w3.org/2000/svg">
<path opacity="0.4" d="M10.0003 18.3337C14.6027 18.3337 18.3337 14.6027 18.3337 10.0003C18.3337 5.39795 14.6027 1.66699 10.0003 1.66699C5.39795 1.66699 1.66699 5.39795 1.66699 10.0003C1.66699 14.6027 5.39795 18.3337 10.0003 18.3337Z" fill="#32BB78"/>
<path d="M8.81621 12.9837C8.64954 12.9837 8.49121 12.917 8.37454 12.8003L6.01621 10.442C5.77454 10.2003 5.77454 9.80033 6.01621 9.55866C6.25788 9.31699 6.65788 9.31699 6.89954 9.55866L8.81621 11.4753L13.0995 7.19199C13.3412 6.95033 13.7412 6.95033 13.9829 7.19199C14.2245 7.43366 14.2245 7.83366 13.9829 8.07533L9.25788 12.8003C9.14121 12.917 8.98288 12.9837 8.81621 12.9837Z" fill="#32BB78"/>
</svg>
