<svg width="20" height="20" viewBox="0 0 20 20" fill="none" xmlns="http://www.w3.org/2000/svg">
<path opacity="0.4" d="M10.0004 18.3338C13.9906 18.3338 17.2254 15.099 17.2254 11.1088C17.2254 7.11853 13.9906 3.88379 10.0004 3.88379C6.01013 3.88379 2.77539 7.11853 2.77539 11.1088C2.77539 15.099 6.01013 18.3338 10.0004 18.3338Z" fill="#5B68F6"/>
<path d="M10 11.4587C9.65833 11.4587 9.375 11.1753 9.375 10.8337V6.66699C9.375 6.32533 9.65833 6.04199 10 6.04199C10.3417 6.04199 10.625 6.32533 10.625 6.66699V10.8337C10.625 11.1753 10.3417 11.4587 10 11.4587Z" fill="#5B68F6"/>
<path d="M12.4079 2.87533H7.59121C7.25788 2.87533 6.99121 2.60866 6.99121 2.27533C6.99121 1.94199 7.25788 1.66699 7.59121 1.66699H12.4079C12.7412 1.66699 13.0079 1.93366 13.0079 2.26699C13.0079 2.60033 12.7412 2.87533 12.4079 2.87533Z" fill="#5B68F6"/>
</svg>
