<svg width="24" height="25" viewBox="0 0 24 25" fill="none" xmlns="http://www.w3.org/2000/svg">
<path d="M20.9999 7.23046C20.9799 7.23046 20.9499 7.23046 20.9199 7.23046C15.6299 6.70046 10.3499 6.50046 5.11992 7.03046L3.07992 7.23046C2.65992 7.27046 2.28992 6.97046 2.24992 6.55046C2.20992 6.13046 2.50992 5.77046 2.91992 5.73046L4.95992 5.53046C10.2799 4.99046 15.6699 5.20046 21.0699 5.73046C21.4799 5.77046 21.7799 6.14046 21.7399 6.55046C21.7099 6.94046 21.3799 7.23046 20.9999 7.23046Z" fill="#292D32"/>
<path d="M8.50001 6.22C8.46001 6.22 8.42001 6.22 8.37001 6.21C7.97001 6.14 7.69001 5.75 7.76001 5.35L7.98001 4.04C8.14001 3.08 8.36001 1.75 10.69 1.75H13.31C15.65 1.75 15.87 3.13 16.02 4.05L16.24 5.35C16.31 5.76 16.03 6.15 15.63 6.21C15.22 6.28 14.83 6 14.77 5.6L14.55 4.3C14.41 3.43 14.38 3.26 13.32 3.26H10.7C9.64001 3.26 9.62001 3.4 9.47001 4.29L9.24001 5.59C9.18001 5.96 8.86001 6.22 8.50001 6.22Z" fill="#292D32"/>
<path d="M15.2099 23.2496H8.7899C5.2999 23.2496 5.1599 21.3196 5.0499 19.7596L4.3999 9.68959C4.3699 9.27959 4.6899 8.91959 5.0999 8.88959C5.5199 8.86959 5.8699 9.17959 5.8999 9.58959L6.5499 19.6596C6.6599 21.1796 6.6999 21.7496 8.7899 21.7496H15.2099C17.3099 21.7496 17.3499 21.1796 17.4499 19.6596L18.0999 9.58959C18.1299 9.17959 18.4899 8.86959 18.8999 8.88959C19.3099 8.91959 19.6299 9.26959 19.5999 9.68959L18.9499 19.7596C18.8399 21.3196 18.6999 23.2496 15.2099 23.2496Z" fill="#292D32"/>
<path d="M13.6601 17.75H10.3301C9.92008 17.75 9.58008 17.41 9.58008 17C9.58008 16.59 9.92008 16.25 10.3301 16.25H13.6601C14.0701 16.25 14.4101 16.59 14.4101 17C14.4101 17.41 14.0701 17.75 13.6601 17.75Z" fill="#292D32"/>
<path d="M14.5 13.75H9.5C9.09 13.75 8.75 13.41 8.75 13C8.75 12.59 9.09 12.25 9.5 12.25H14.5C14.91 12.25 15.25 12.59 15.25 13C15.25 13.41 14.91 13.75 14.5 13.75Z" fill="#292D32"/>
</svg>
